# xmcd
#
# Track frame offsets:
#	150
#	4972
#	21587
#	37300
#	51938
#	74145
#	91418
#	106153
#	121893
#	137582
#	157503
#	175297
#	194549
#	209305
#	214575
#	221885
#	227211
#	234895
#	240130
#
# Disc length: 3376 seconds
#
# Revision: 0
# Processed by: cddbd v1.5.1PL0 Copyright (c) Steve Scherf et al.
# Submitted via: audiograbber 1.83.01
#
DISCID=0f0d2e13
DTITLE=Harangozo Teri - Minden ember boldog akar lenni...
DYEAR=1900
DGENRE=
TTITLE0=Szerenad
TTITLE1=Mama, ugy szeretlek en
TTITLE2=Minden ember boldog akar lenni
TTITLE3=First Lady
TTITLE4=Egyetlen sziv
TTITLE5=Nyar, Velence, fenyek
TTITLE6=Szeretetre szomjasan
TTITLE7=Szeretnem bejarni a foldet
TTITLE8=Minden nap
TTITLE9=Fujja a szel, fujja
TTITLE10=Ne felejts el soha szeretni
TTITLE11=Egyoldalu szerelem
TTITLE12=Mindenkinek van egy alma
TTITLE13=Zold erdo harmatat
TTITLE14=Jaj gyongyviragom
TTITLE15=Hova keszulsz szivem
TTITLE16=Asszonyi mesterseg
TTITLE17=De mit torom fejemet
TTITLE18=Adjon Isten jo ejszakat!
EXTD=
EXTT0=
EXTT1=
EXTT2=
EXTT3=
EXTT4=
EXTT5=
EXTT6=
EXTT7=
EXTT8=
EXTT9=
EXTT10=
EXTT11=
EXTT12=
EXTT13=
EXTT14=
EXTT15=
EXTT16=
EXTT17=
EXTT18=
PLAYORDER=
